HIERARCHY
ROOT Hips
{
    OFFSET 0.000000 0.000000 0.000000
    CHANNELS 6 Xposition Yposition Zposition Zrotation Xrotation Yrotation
    JOINT Spine
    {
        OFFSET -0.000000 14.517291 0.000000
        CHANNELS 3 Zrotation Xrotation Yrotation
        JOINT Spine1
        {
            OFFSET -0.000000 37.558300 0.000000
            CHANNELS 3 Zrotation Xrotation Yrotation
            JOINT Neck
            {
                OFFSET -0.000000 37.404057 3.400369
                CHANNELS 3 Zrotation Xrotation Yrotation
                JOINT Head
                {
                    OFFSET -0.000000 24.785618 -3.540803
                    CHANNELS 3 Zrotation Xrotation Yrotation
                    End Site
                    {
                        OFFSET -0.000000 35.408028 0.000000
                    }
                }
            }
            JOINT LeftShoulder
            {
                OFFSET 6.992933 33.973492 -0.192664
                CHANNELS 3 Zrotation Xrotation Yrotation
                JOINT LeftArm
                {
                    OFFSET 21.527611 0.000000 0.000000
                    CHANNELS 3 Zrotation Xrotation Yrotation
                    JOINT LeftForeArm
                    {
                        OFFSET 56.353916 0.000000 0.000000
                        CHANNELS 3 Zrotation Xrotation Yrotation
                        JOINT LeftHand
                        {
                            OFFSET 47.774071 0.000000 0.000000
                            CHANNELS 3 Zrotation Xrotation Yrotation
                            End Site
                            {
                                OFFSET 26.556021 0.000000 0.000000
                            }
                        }
                    }
                }
            }
            JOINT RightShoulder
            {
                OFFSET -7.065357 33.973492 -0.192664
                CHANNELS 3 Zrotation Xrotation Yrotation
                JOINT RightArm
                {
                    OFFSET -21.527611 0.000000 0.000000
                    CHANNELS 3 Zrotation Xrotation Yrotation
                    JOINT RightForeArm
                    {
                        OFFSET -56.353916 0.000000 0.000000
                        CHANNELS 3 Zrotation Xrotation Yrotation
                        JOINT RightHand
                        {
                            OFFSET -47.774071 0.000000 0.000000
                            CHANNELS 3 Zrotation Xrotation Yrotation
                            End Site
                            {
                                OFFSET -26.556021 0.000000 0.000000
                            }
                        }
                    }
                }
            }
        }
    }
    JOINT LeftUpLeg
    {
        OFFSET 17.704014 0.000000 0.000000
        CHANNELS 3 Zrotation Xrotation Yrotation
        JOINT LeftLeg
        {
            OFFSET -0.000000 -81.181816 0.000000
            CHANNELS 3 Zrotation Xrotation Yrotation
            JOINT LeftFoot
            {
                OFFSET -0.000000 -62.821102 0.000000
                CHANNELS 3 Zrotation Xrotation Yrotation
                JOINT LeftToeBase
                {
                    OFFSET -0.000000 -11.507608 26.556021
                    CHANNELS 3 Zrotation Xrotation Yrotation
                    End Site
                    {
                        OFFSET -0.000000 0.000000 7.081605
                    }
                }
            }
        }
    }
    JOINT RightUpLeg
    {
        OFFSET -17.704014 0.000000 0.000000
        CHANNELS 3 Zrotation Xrotation Yrotation
        JOINT RightLeg
        {
            OFFSET -0.000000 -81.181816 0.000000
            CHANNELS 3 Zrotation Xrotation Yrotation
            JOINT RightFoot
            {
                OFFSET -0.000000 -62.821102 0.000000
                CHANNELS 3 Zrotation Xrotation Yrotation
                JOINT RightToeBase
                {
                    OFFSET -0.000000 -11.507608 26.556021
                    CHANNELS 3 Zrotation Xrotation Yrotation
                    End Site
                    {
                        OFFSET -0.000000 0.000000 7.081605
                    }
                }
            }
        }
    }
}
MOTION
Frames:    6
Frame Time:    0.008333
21.877134    147.119583    50.276852    4.268566    3.899071    -56.875721    0.137012    -0.257097    -0.704551    4.429343    -6.972489    0.032848    23.672819    2.389649    19.215216    -19.040407    13.452828    16.573156    14.874329    0.943443    -15.529445    -3.675353    -5.689165    -17.991135    -4.516084    -1.193434    -89.754250    -3.722262    -4.851761    -25.338762    -2.315830    -9.042169    -11.361515    46.033112    -31.079874    41.149052    -23.725119    -66.592857    79.594383    11.784924    -55.583923    26.457422    36.486080    -24.117870    27.941650    -29.672653    41.573700    4.042851    -0.303779    -13.384077    43.342331    0.000000    0.000000    0.000000    -28.358425    -7.540656    -19.304743    3.449859    29.233009    -7.105768    19.923218    -10.452232    5.398453    0.000000    0.000000    0.000000    
21.865974    147.119690    50.275379    4.258498    3.898625    -56.887074    0.111230    -0.251159    -0.699933    4.447982    -6.957331    0.034851    23.654316    2.401445    19.212105    -18.994474    13.394486    16.565744    14.875146    0.937252    -15.527382    -3.679237    -5.688097    -17.994703    -4.493253    -1.230706    -89.757462    -3.761604    -4.858154    -25.329277    -2.304705    -9.022854    -11.351071    46.009949    -31.060402    41.139088    -23.682508    -66.582863    79.624580    11.803967    -55.579792    26.504198    36.491463    -24.101933    27.927088    -29.673351    41.567585    4.055034    -0.309417    -13.396501    43.346146    0.000000    0.000000    0.000000    -28.350742    -7.528100    -19.298162    3.455294    29.217949    -7.123219    19.926966    -10.453044    5.421825    0.000000    0.000000    0.000000    
21.858753    147.122070    50.268261    4.254981    3.903554    -56.897415    0.088069    -0.248220    -0.696269    4.465358    -6.946667    0.036669    23.640795    2.399370    19.207737    -18.956089    13.365588    16.558340    14.876446    0.921448    -15.525713    -3.686342    -5.704309    -17.997320    -4.488274    -1.240192    -89.744705    -3.798345    -4.853431    -25.333067    -2.291165    -8.977465    -11.353548    46.035107    -31.070927    41.180084    -23.514334    -66.538391    79.768700    11.813185    -55.571686    26.493010    36.502544    -24.093884    27.918940    -29.681963    41.554890    4.090600    -0.316425    -13.388356    43.325512    0.000000    0.000000    0.000000    -28.337776    -7.529819    -19.296581    3.447752    29.211597    -7.091823    19.931005    -10.456824    5.400091    0.000000    0.000000    0.000000    
21.855003    147.121506    50.262619    4.248556    3.905016    -56.903210    0.067542    -0.236220    -0.701874    4.478188    -6.938612    0.035351    23.617653    2.413671    19.203333    -18.910194    13.302229    16.549952    14.874509    0.923719    -15.513609    -3.691884    -5.691682    -17.983635    -4.413131    -1.396203    -89.696083    -3.948530    -4.894356    -25.397968    -2.269414    -8.937501    -11.341618    46.028584    -31.061056    41.203453    -23.440868    -66.505333    79.810432    11.826799    -55.551285    26.501196    36.507141    -24.090252    27.916550    -29.670027    41.563606    4.063649    -0.321463    -13.398434    43.345921    0.000000    0.000000    0.000000    -28.336601    -7.525292    -19.317678    3.445898    29.211060    -7.086363    19.947163    -10.439904    5.441395    0.000000    0.000000    0.000000    
21.850250    147.119461    50.253475    4.248217    3.913211    -56.913734    0.050498    -0.239133    -0.698178    4.482451    -6.921672    0.036038    23.608986    2.419071    19.206701    -18.871712    13.257500    16.548985    14.876616    0.910879    -15.509229    -3.680552    -5.744056    -17.987879    -4.442225    -1.349831    -89.681145    -3.955276    -4.874317    -25.400326    -2.212635    -8.774322    -11.419007    45.899467    -30.772625    41.328148    -24.190275    -66.774590    79.047989    12.007489    -55.681183    26.639282    36.518890    -24.089582    27.916683    -29.671707    41.559952    4.076466    -0.308747    -13.394179    43.353382    0.000000    0.000000    0.000000    -28.329758    -7.526110    -19.330608    3.460088    29.206636    -7.057342    20.007231    -10.502446    5.349437    0.000000    0.000000    0.000000    
21.847549    147.116760    50.245182    4.245222    3.920867    -56.923470    0.036189    -0.234615    -0.700717    4.489628    -6.916411    0.035519    23.569353    2.419271    19.203310    -18.786484    13.226330    16.547310    14.875322    0.909795    -15.509585    -3.677285    -5.768219    -17.974203    -4.439620    -1.353832    -89.658653    -3.987516    -4.866178    -25.421593    -2.157341    -8.715526    -11.388385    45.868515    -30.812786    41.358562    -23.906084    -66.686981    79.274048    12.011190    -55.651287    26.641626    36.531929    -24.089348    27.909607    -29.672588    41.562737    4.073787    -0.309655    -13.401484    43.363026    0.000000    0.000000    0.000000    -28.320919    -7.533569    -19.344984    3.459107    29.211555    -7.081646    20.010075    -10.500169    5.381261    0.000000    0.000000    0.000000    
